<?xml version="1.0" standalone="no"?>
<!DOCTYPE svg PUBLIC "-//W3C//DTD SVG 20010904//EN"
 "http://www.w3.org/TR/2001/REC-SVG-20010904/DTD/svg10.dtd">
<svg version="1.0" xmlns="http://www.w3.org/2000/svg"
 width="32.000000pt" height="32.000000pt" viewBox="0 0 32.000000 32.000000"
 preserveAspectRatio="xMidYMid meet">

<g transform="translate(0.000000,32.000000) scale(0.100000,-0.100000)"
fill="#000000" stroke="none">
<path d="M157 313 c-4 -3 -7 -21 -7 -40 0 -36 -10 -42 -30 -18 -20 25 -40 18
-39 -12 2 -24 2 -25 6 -5 5 25 21 29 29 7 4 -8 15 -15 25 -15 15 0 19 7 19 36
0 50 23 39 31 -15 7 -54 25 -73 45 -47 16 23 18 36 5 36 -5 0 -11 -10 -15 -22
-5 -19 -8 -21 -16 -8 -5 8 -10 28 -10 43 0 46 -24 80 -43 60z"/>
<path d="M255 204 c24 -58 17 -114 -15 -114 -14 0 -20 7 -21 23 -1 16 -2 18
-6 5 -2 -10 -7 -18 -9 -18 -20 0 -94 24 -94 31 0 4 11 21 24 36 l24 28 29 -25
28 -24 -28 29 -28 30 -34 -38 c-27 -31 -38 -37 -55 -32 -22 7 -22 10 -6 60 4
11 -1 4 -11 -15 -10 -19 -24 -40 -32 -46 -17 -14 -21 -99 -6 -121 10 -14 18
-15 46 -6 19 6 26 11 16 12 -13 1 -17 8 -15 23 2 17 -4 26 -27 36 l-30 14 30
14 c19 8 22 12 8 8 -14 -3 -23 -1 -23 7 0 8 12 10 43 5 43 -7 93 -33 83 -43
-8 -8 14 -33 28 -33 6 0 3 7 -7 14 -16 12 -15 14 15 18 18 3 45 1 59 -4 21 -7
25 -14 21 -33 -5 -30 -4 -30 -94 -5 -84 23 -88 24 -88 10 0 -6 6 -10 13 -9 6
1 19 1 27 -1 11 -1 9 -4 -5 -11 -15 -7 -12 -7 13 -3 19 3 61 -2 99 -12 61 -16
66 -16 78 -1 16 23 11 108 -7 121 -9 6 -19 26 -22 44 -4 17 -12 35 -18 39 -8
4 -9 0 -3 -13z m45 -84 c0 -5 -4 -10 -10 -10 -5 0 -10 5 -10 10 0 6 5 10 10
10 6 0 10 -4 10 -10z m-123 -26 c-3 -3 -12 -4 -19 -1 -8 3 -5 6 6 6 11 1 17
-2 13 -5z m128 -4 c-3 -5 -15 -10 -26 -10 -11 0 -17 5 -14 10 3 6 15 10 26 10
11 0 17 -4 14 -10z m-257 -58 c2 -12 -1 -22 -6 -22 -15 0 -34 28 -27 40 10 17
30 6 33 -18z m257 18 c7 -12 -12 -40 -26 -40 -10 0 -12 34 -2 43 9 10 21 9 28
-3z"/>
<path d="M72 88 c5 -15 37 -18 41 -3 1 6 -9 12 -22 13 -16 3 -22 -1 -19 -10z"/>
<path d="M206 55 c10 -8 23 -15 28 -15 6 0 1 7 -10 15 -10 8 -23 15 -28 15 -6
0 -1 -7 10 -15z"/>
</g>
</svg>
