<?xml version="1.0" standalone="no"?>
<!DOCTYPE svg PUBLIC "-//W3C//DTD SVG 20010904//EN"
 "http://www.w3.org/TR/2001/REC-SVG-20010904/DTD/svg10.dtd">
<svg version="1.0" xmlns="http://www.w3.org/2000/svg"
 width="32.000000pt" height="32.000000pt" viewBox="0 0 32.000000 32.000000"
 preserveAspectRatio="xMidYMid meet">

<g transform="translate(0.000000,32.000000) scale(0.100000,-0.100000)"
fill="#000000" stroke="none">
<path d="M90 270 l0 -40 70 0 70 0 0 40 0 40 -70 0 -70 0 0 -40z m130 14 c0
-11 -5 -14 -16 -10 -9 4 -23 1 -30 -5 -8 -6 -21 -8 -30 -5 -9 4 -23 1 -30 -5
-11 -9 -14 -6 -14 15 0 25 2 26 60 26 48 0 60 -3 60 -16z m-10 -29 c11 -13 8
-15 -14 -15 -25 0 -33 10 -19 23 10 11 19 8 33 -8z m-65 -5 c3 -5 -1 -10 -10
-10 -9 0 -13 5 -10 10 3 6 8 10 10 10 2 0 7 -4 10 -10z"/>
<path d="M24 285 c-4 -9 -2 -21 4 -27 16 -16 47 -5 47 17 0 26 -42 34 -51 10z
m46 -10 c0 -8 -9 -15 -20 -15 -11 0 -20 7 -20 15 0 8 9 15 20 15 11 0 20 -7
20 -15z"/>
<path d="M244 285 c-4 -9 -2 -21 4 -27 16 -16 47 -5 47 17 0 26 -42 34 -51 10z
m46 -10 c0 -8 -9 -15 -20 -15 -11 0 -20 7 -20 15 0 8 9 15 20 15 11 0 20 -7
20 -15z"/>
<path d="M187 192 c-10 -10 -17 -28 -17 -40 0 -11 -5 -24 -11 -27 -11 -7 -5
-56 12 -91 9 -17 19 -21 58 -19 57 2 71 9 71 39 0 12 6 28 12 34 10 10 10 17
0 32 -6 11 -12 27 -12 35 0 46 -81 72 -113 37z m90 -18 c13 -21 14 -30 5 -45
-7 -10 -12 -26 -12 -34 0 -11 -10 -15 -35 -15 -29 0 -37 5 -45 26 -15 39 -12
72 8 83 30 18 61 12 79 -15z m-95 -86 c3 -32 5 -33 50 -36 46 -3 47 -3 50 29
3 33 28 54 28 25 0 -9 -4 -16 -9 -16 -5 0 -11 -12 -13 -27 -3 -26 -7 -28 -52
-31 -27 -2 -52 0 -56 5 -13 14 -22 83 -11 83 5 0 11 -15 13 -32z m71 -25 c-13
-2 -33 -2 -45 0 -13 2 -3 4 22 4 25 0 35 -2 23 -4z"/>
<path d="M47 194 c-11 -11 -8 -44 3 -44 6 0 10 -5 10 -11 0 -16 -26 -39 -45
-39 -13 0 -16 -9 -13 -42 l3 -43 60 0 60 0 3 43 c3 33 0 42 -13 42 -19 0 -45
23 -45 39 0 6 5 11 11 11 16 0 6 44 -11 48 -9 1 -19 0 -23 -4z m33 -19 c0 -8
-7 -15 -15 -15 -8 0 -15 7 -15 15 0 8 7 15 15 15 8 0 15 -7 15 -15z m-3 -71
c-3 -3 -12 -4 -19 -1 -8 3 -5 6 6 6 11 1 17 -2 13 -5z m43 -29 c0 -12 -13 -15
-55 -15 -42 0 -55 3 -55 15 0 12 13 15 55 15 42 0 55 -3 55 -15z m0 -40 c0
-12 -13 -15 -55 -15 -42 0 -55 3 -55 15 0 12 13 15 55 15 42 0 55 -3 55 -15z"/>
</g>
</svg>
