<?xml version="1.0" standalone="no"?>
<!DOCTYPE svg PUBLIC "-//W3C//DTD SVG 20010904//EN"
 "http://www.w3.org/TR/2001/REC-SVG-20010904/DTD/svg10.dtd">
<svg version="1.0" xmlns="http://www.w3.org/2000/svg"
 width="32.000000pt" height="32.000000pt" viewBox="0 0 32.000000 32.000000"
 preserveAspectRatio="xMidYMid meet">

<g transform="translate(0.000000,32.000000) scale(0.100000,-0.100000)"
fill="#000000" stroke="none">
<path d="M235 283 c-29 -7 -52 -31 -58 -59 -5 -29 10 -31 55 -8 24 12 29 21
25 39 -2 14 1 26 7 29 14 6 -3 5 -29 -1z m6 -47 c-20 -23 -51 -27 -51 -6 0 11
4 22 10 25 6 4 7 -1 3 -12 -5 -15 -1 -14 18 5 24 23 40 13 20 -12z"/>
<path d="M78 193 c-10 -2 -18 -9 -18 -14 0 -6 5 -7 11 -4 6 4 23 11 37 15 19
6 21 8 7 8 -11 0 -28 -2 -37 -5z"/>
<path d="M240 190 c-11 -7 -7 -9 15 -7 35 2 45 -22 19 -48 -15 -14 -29 -16
-90 -10 -76 7 -114 -4 -144 -41 -8 -9 3 -4 25 11 37 25 45 26 112 20 78 -7
107 2 118 35 12 37 -22 61 -55 40z"/>
<path d="M74 156 c-18 -8 -35 -20 -40 -28 -5 -8 2 -7 19 5 15 9 44 21 64 26
28 7 31 9 13 10 -14 0 -39 -6 -56 -13z"/>
<path d="M20 149 c0 -5 5 -7 10 -4 6 3 10 8 10 11 0 2 -4 4 -10 4 -5 0 -10 -5
-10 -11z"/>
<path d="M111 87 c-14 -6 -27 -19 -29 -27 -4 -11 -2 -11 11 2 24 23 53 31 92
24 40 -8 63 -32 47 -48 -8 -8 -15 -8 -27 2 -8 7 -15 8 -15 2 0 -16 31 -23 46
-11 23 19 16 39 -21 55 -42 17 -72 18 -104 1z"/>
</g>
</svg>
